<?xml version="1.0" encoding="utf-8"?>
<!-- Generator: Adobe Illustrator 21.1.0, SVG Export Plug-In . SVG Version: 6.00 Build 0)  -->
<svg version="1.1" id="Layer_1" xmlns="http://www.w3.org/2000/svg" xmlns:xlink="http://www.w3.org/1999/xlink" x="0px" y="0px"
	 viewBox="0 0 599.2 441.6" style="enable-background:new 0 0 599.2 441.6;" xml:space="preserve">
<style type="text/css">
	.st0{fill:#10B981;}
	.st1{fill:#D1FAE5;}
</style>
<g>
	<path class="st0" d="M337.6,3.9c-5.2,5.2-5.2,13.7,0,19l9.9,9.9H219.3c-7.4,0-13.4,6-13.4,13.4s6,13.4,13.4,13.4h128.1l-9.9,9.9
		c-5.2,5.2-5.2,13.7,0,19c5.2,5.2,13.7,5.2,19,0l32.8-32.8c5.2-5.2,5.2-13.7,0-19L356.5,3.8C351.3-1.3,342.8-1.3,337.6,3.9z"/>
	<path class="st0" d="M379.9,381.9H251.7l9.9-9.9c5.2-5.2,5.2-13.7,0-19c-5.2-5.2-13.7-5.2-19,0l-32.8,32.8c-5.2,5.2-5.2,13.7,0,19
		l32.8,32.8c5.2,5.2,13.7,5.2,19,0c5.2-5.2,5.2-13.7,0-19l-9.9-9.9h128.1c3.7,0,7-1.5,9.5-4s4-5.8,4-9.5
		C393.3,388,387.3,382,379.9,381.9z"/>
</g>
<ellipse transform="matrix(0.7071 -0.7071 0.7071 0.7071 -112.0916 161.0128)" class="st1" cx="138.3" cy="215.8" rx="75.6" ry="75.6"/>
<g>
	<path class="st0" d="M236.2,313.6c-54,54-141.8,54-195.7,0C14.3,287.4,0,252.7-0.1,215.7s14.4-71.7,40.6-97.9
		c54-54,141.8-54,195.7,0c5.2,5.2,5.2,13.7,0,19c-5.2,5.2-13.7,5.2-19,0c-43.5-43.5-114.3-43.5-157.8,0
		c-21.1,21.1-32.7,49.1-32.7,78.9s11.6,57.8,32.7,78.9c43.5,43.5,114.3,43.5,157.8,0c22.1-22.1,33.7-51.3,32.7-82.6
		c-0.2-7.4,5.5-13.6,12.9-13.8s13.6,5.5,13.8,12.9C277.8,249.4,263.1,286.7,236.2,313.6z"/>
	<path class="st0" d="M144.2,209.2v-21.5c8.6,1.5,9.9,6.3,10.1,9.1c0.1,0.7,0.6,1.3,1.4,1.3h9.4c0.8,0,1.4-0.7,1.4-1.5
		c-0.6-11.8-8.7-19.4-22.2-21.1v-7.2c0-0.8-0.6-1.4-1.4-1.4h-9.4c-0.8,0-1.4,0.6-1.4,1.4v7.2c-14,1.8-22.2,9.9-22.2,22.6
		s8.2,20.8,22.2,22.6v21.5c-8.6-1.5-9.9-6.3-10.1-9.1c-0.1-0.7-0.6-1.3-1.4-1.3h-9.4c-0.8,0-1.4,0.7-1.4,1.5
		c0.6,11.8,8.7,19.4,22.2,21.1v7.2c0,0.8,0.6,1.4,1.4,1.4h9.4c0.8,0,1.4-0.6,1.4-1.4v-7.2c14-1.8,22.2-9.9,22.2-22.6
		C166.4,219.1,158.2,211,144.2,209.2z M132,208.4c-10.1-1.8-10.1-8.1-10.1-10.3c0-2.3,0-8.6,10.1-10.3V208.4z M144.2,242.1v-20.7
		c10.1,1.8,10.1,8.1,10.1,10.3C154.3,234.1,154.3,240.4,144.2,242.1z"/>
</g>
<ellipse transform="matrix(0.7071 -0.7071 0.7071 0.7071 -24.687 392.029)" class="st1" cx="460.9" cy="225.8" rx="75.6" ry="75.6"/>
<g>
	<path class="st0" d="M359.8,320.4c-5.1-5.4-4.8-13.8,0.6-18.9s13.8-4.8,18.9,0.6c21.4,22.8,50.3,35.3,81.5,35.3
		c61.5,0,111.6-50.1,111.6-111.6c0-29.8-11.6-57.8-32.7-78.9c-21.1-21.1-49.1-32.7-78.9-32.7c-61.5,0-111.6,50.1-111.6,111.6
		c0,7.4-6,13.4-13.4,13.4s-13.4-6-13.4-13.4c0-76.3,62.1-138.4,138.4-138.4c37,0,71.8,14.4,97.9,40.5c26.1,26.2,40.5,60.9,40.5,97.9
		c0,76.3-62.1,138.4-138.4,138.4C422.7,364.2,385.9,348.2,359.8,320.4z"/>
	<path class="st0" d="M495.6,234.1c-0.4-0.4-0.9-0.6-1.4-0.6h-8.7c-0.9,0-1.7,0.7-1.9,1.6c-0.9,5.1-2.2,9-3.9,11.9
		c-3.1,5.4-7.4,8-13.4,8c-6.5,0-11.2-2.5-14.5-7.7c-1.7-2.6-2.9-5.6-3.8-9.1h25.5c0.9,0,1.6-0.6,1.9-1.4l2.3-7.6
		c0.2-0.6,0.1-1.2-0.3-1.7c-0.4-0.5-0.9-0.8-1.6-0.8h-29.1c0-0.2,0-0.5,0-0.7c0-1.4,0-2.7,0.1-3.8h26.8c0.9,0,1.6-0.6,1.9-1.4
		l2.2-7.6c0.2-0.6,0.1-1.2-0.3-1.7c-0.4-0.5-0.9-0.8-1.6-0.8h-27.3c0.9-3.4,2.2-6.2,3.8-8.5c3.7-5,8.3-7.4,14.2-7.4
		c4.8,0,8.4,1.3,11,3.9c2.6,2.6,4.4,6.3,5.3,11c0.2,0.9,1,1.6,1.9,1.6h8.7l0,0c1.1,0,1.9-0.9,1.9-1.9c0-0.1,0-0.3,0-0.4
		c-0.6-7-3.4-13.2-8.2-18.7c-5-5.6-12-8.5-20.9-8.5c-10.4,0-18.7,4.4-24.6,12.9c-3.2,4.6-5.5,10-6.8,16.1h-9.7
		c-0.9,0-1.6,0.6-1.9,1.4l-2.2,7.6c-0.2,0.6-0.1,1.2,0.3,1.7c0.4,0.5,0.9,0.8,1.6,0.8h10.7c0,0.7,0,1.3,0,2c0,0.8,0,1.7,0,2.5h-8.4
		c-0.9,0-1.6,0.6-1.9,1.4l-2.2,7.6c-0.2,0.6-0.1,1.2,0.3,1.7c0.4,0.5,0.9,0.8,1.6,0.8h11.8c1.6,8.9,4.8,16,9.7,21.1
		c5.5,5.9,12.5,8.9,20.7,8.9c9.5,0,17.1-3.6,22.7-10.8c4.6-5.9,7.3-13.2,8.2-21.8C496.2,235,496,234.5,495.6,234.1z"/>
</g>
</svg>
